<mxfile host="app.diagrams.net" modified="2023-08-23T16:44:53.120Z" agent="Mozilla/5.0 (Windows NT 10.0; Win64; x64; rv:109.0) Gecko/20100101 Firefox/114.0" etag="Q2R1RMh0zlGlZ2JCpGJ-" version="21.6.9" type="github">
  <diagram name="Page-1" id="MdoeTvSomnvcYyJybCuK">
    <mxGraphModel dx="618" dy="571" grid="1" gridSize="10" guides="1" tooltips="1" connect="1" arrows="1" fold="1" page="1" pageScale="1" pageWidth="850" pageHeight="1100" math="0" shadow="0">
      <root>
        <mxCell id="0" />
        <mxCell id="1" parent="0" />
        <mxCell id="rVx_CNBtRCrPAXsPUN4s-6" style="edgeStyle=orthogonalEdgeStyle;rounded=0;orthogonalLoop=1;jettySize=auto;html=1;exitX=0.5;exitY=1;exitDx=0;exitDy=0;exitPerimeter=0;entryX=0.5;entryY=0;entryDx=0;entryDy=0;entryPerimeter=0;" edge="1" parent="1" source="rVx_CNBtRCrPAXsPUN4s-1" target="rVx_CNBtRCrPAXsPUN4s-3">
          <mxGeometry relative="1" as="geometry" />
        </mxCell>
        <mxCell id="rVx_CNBtRCrPAXsPUN4s-1" value="START" style="strokeWidth=2;html=1;shape=mxgraph.flowchart.terminator;whiteSpace=wrap;" vertex="1" parent="1">
          <mxGeometry x="260" y="60" width="110" height="70" as="geometry" />
        </mxCell>
        <mxCell id="rVx_CNBtRCrPAXsPUN4s-3" value="END" style="strokeWidth=2;html=1;shape=mxgraph.flowchart.terminator;whiteSpace=wrap;" vertex="1" parent="1">
          <mxGeometry x="260" y="240" width="110" height="70" as="geometry" />
        </mxCell>
      </root>
    </mxGraphModel>
  </diagram>
</mxfile>
